<svg id="color" enable-background="new 0 0 24 24" height="512" viewBox="0 0 24 24" width="512" xmlns="http://www.w3.org/2000/svg"><path d="m23 8.04h-22c-.553 0-1 .448-1 1v11.96c0 1.654 1.346 3 3 3h18c1.654 0 3-1.346 3-3v-11.96c0-.552-.447-1-1-1z" fill="#eceff1"/><path d="m21 3h-18c-1.657 0-3 1.343-3 3v3.04h24v-3.04c0-1.657-1.343-3-3-3z" fill="#2196f3"/><path d="m12 9.04h-12v11.96c0 1.654 1.346 3 3 3h9z" fill="#cdd0d2"/><path d="m12 3h-9c-1.657 0-3 1.343-3 3v3.04h12z" fill="#1d83d4"/><path d="m16.25 11h-2.5c-.414 0-.75.336-.75.75v8.5c0 .414.336.75.75.75h2.5c.414 0 .75-.336.75-.75v-8.5c0-.414-.336-.75-.75-.75z" fill="#2196f3"/><path d="m10.25 15h-2.5c-.414 0-.75.336-.75.75v4.5c0 .414.336.75.75.75h2.5c.414 0 .75-.336.75-.75v-4.5c0-.414-.336-.75-.75-.75z" fill="#64b5f6"/><path d="m9 15h-1.25c-.414 0-.75.336-.75.75v4.5c0 .414.336.75.75.75h1.25z" fill="#579ed6"/><path d="m15 11h-1.25c-.414 0-.75.336-.75.75v8.5c0 .414.336.75.75.75h1.25z" fill="#1d83d4"/><path d="m17.25 21h-10.5c-.414 0-.75-.336-.75-.75s.336-.75.75-.75h10.5c.414 0 .75.336.75.75s-.336.75-.75.75z" fill="#607d8b"/><path d="m18 20.25h-12c0 .414.336.75.75.75h10.5c.414 0 .75-.336.75-.75z" fill="#546d79"/><path d="m6 0h-1c-.553 0-1 .448-1 1v4c0 .552.447 1 1 1h1c.553 0 1-.448 1-1v-4c0-.552-.447-1-1-1z" fill="#607d8b"/><path d="m19 0h-1c-.553 0-1 .448-1 1v4c0 .552.447 1 1 1h1c.553 0 1-.448 1-1v-4c0-.552-.447-1-1-1z" fill="#607d8b"/><g fill="#546d79"><path d="m5.5 0h-.5c-.553 0-1 .448-1 1v4c0 .552.447 1 1 1h.5z"/><path d="m18.5 0h-.5c-.553 0-1 .448-1 1v4c0 .552.447 1 1 1h.5z"/></g></svg>