<svg id="Capa_1" enable-background="new 0 0 512 512" height="512" viewBox="0 0 512 512" width="512" xmlns="http://www.w3.org/2000/svg"><g><path d="m0 0h512v512h-512z" fill="#f3f6ff"/><path d="m256 0h256v512h-256z" fill="#cddbf9"/><path d="m30 83.857h-30v-83.857h83.857v30h-53.857z" fill="#3c4a83"/><path d="m512 83.857h-30v-53.857h-53.857v-30h83.857z" fill="#2a386b"/><path d="m83.857 512h-83.857v-83.857h30v53.857h53.857z" fill="#3c4a83"/><path d="m512 512h-83.857v-30h53.857v-53.857h30z" fill="#2a386b"/><g fill="#60e2f4"><path d="m236.571 236.571h-167.714v-167.714h167.714zm-137.714-30h107.714v-107.714h-107.714z"/><path d="m236.571 443.143h-167.714v-167.714h98.857v68.857h38.857v-53.857h30zm-137.714-30h107.714v-38.856h-68.857v-68.857h-38.857z"/><path d="m137.714 137.714h30v30h-30z"/></g><path d="m275.429 68.857v98.643h30v-68.643h38.857v68.856h68.856v38.857h-137.705v30h167.705v-167.713zm137.714 68.857h-38.856v-38.857h38.856z" fill="#29c5ec"/><path d="m275.429 275.429v167.714h167.714v-167.714zm30 30h107.714v38.857h-68.856v68.856h-38.857v-107.713zm68.857 107.714v-38.856h38.856v38.856z" fill="#29c5ec"/></g></svg>